<svg width="1200" height="900" viewBox="0 0 1200 900" fill="none" xmlns="http://www.w3.org/2000/svg">
  <rect width="1200" height="900" rx="48" fill="#F7F0E6"/>
  <rect x="72" y="82" width="1056" height="736" rx="42" fill="#F2E7D8"/>
  <ellipse cx="835" cy="320" rx="230" ry="170" fill="#D7C3A7"/>
  <path d="M419 595C419 534 467 484 527 484H683C743 484 791 534 791 595V621H419V595Z" fill="#5C463B"/>
  <path d="M465 456C490 401 545 364 606 364C667 364 722 401 747 456H465Z" fill="#75584A"/>
  <path d="M349 615C349 551 398 499 459 499H565C626 499 675 551 675 615V645H349V615Z" fill="#6A5146"/>
  <path d="M537 645C537 583 584 533 643 533H758C817 533 864 583 864 645V675H537V645Z" fill="#3F2D26"/>
  <rect x="122" y="120" width="310" height="110" rx="22" fill="#fff" fill-opacity="0.82"/>
  <text x="156" y="172" fill="#5A4030" font-size="36" font-family="Arial, sans-serif" font-weight="700">椴木黑木耳</text>
  <text x="156" y="208" fill="#7D6656" font-size="22" font-family="Arial, sans-serif">春耳冬耳 · 肉厚脆嫩</text>
</svg>
