<svg xmlns="http://www.w3.org/2000/svg" viewBox="0 0 64 64" role="img" aria-label="山野本味图标">
  <defs>
    <linearGradient id="bg" x1="12" y1="6" x2="52" y2="58" gradientUnits="userSpaceOnUse">
      <stop offset="0" stop-color="#7f9b54" />
      <stop offset="0.52" stop-color="#5e7a3c" />
      <stop offset="1" stop-color="#31452f" />
    </linearGradient>
    <linearGradient id="leaf" x1="18" y1="16" x2="46" y2="50" gradientUnits="userSpaceOnUse">
      <stop offset="0" stop-color="#fff8df" />
      <stop offset="1" stop-color="#dbe9a7" />
    </linearGradient>
  </defs>
  <rect width="64" height="64" rx="16" fill="#f7f2e8" />
  <circle cx="32" cy="32" r="27" fill="url(#bg)" />
  <path
    d="M12.8 42.9c5.2-7.5 10-11.2 14.5-11.2 3.2 0 5.7 1.7 8.5 4.4 2.7 2.6 5.8 5.7 10.4 5.7 2.6 0 5-.9 7.2-2.5"
    fill="none"
    stroke="#f1dfad"
    stroke-width="3.5"
    stroke-linecap="round"
  />
  <path
    d="M43.5 15.7c-9.9.9-17.1 4.1-21.4 9.5-4 5.1-4.6 11.3-1.6 16.4 6.3.3 12.2-2.1 16.7-6.8 4.9-5.1 7-11.4 6.3-19.1Z"
    fill="url(#leaf)"
  />
  <path
    d="M20.4 41.5c5.8-7 12.5-13.1 20.2-18.1"
    fill="none"
    stroke="#3f5b30"
    stroke-width="2.8"
    stroke-linecap="round"
  />
  <path
    d="M28.4 31.3c3.2.1 6.2-.5 9-1.8M24.5 36.3c2.2.3 4.5.2 6.8-.3"
    fill="none"
    stroke="#6f8d47"
    stroke-width="2"
    stroke-linecap="round"
  />
  <circle cx="48" cy="18" r="3.4" fill="#f1dfad" />
</svg>
